<mxfile host="Electron" agent="Mozilla/5.0 (Windows NT 10.0; Win64; x64) AppleWebKit/537.36 (KHTML, like Gecko) draw.io/28.1.2 Chrome/138.0.7204.243 Electron/37.4.0 Safari/537.36" version="28.1.2" pages="2">
  <diagram name="Diagrama de Classes" id="RxNNvbhXm3Nlgly23P-r">
    <mxGraphModel dx="1225" dy="671" grid="1" gridSize="10" guides="1" tooltips="1" connect="1" arrows="1" fold="1" page="1" pageScale="1" pageWidth="827" pageHeight="1169" math="0" shadow="0">
      <root>
        <mxCell id="0" />
        <mxCell id="1" parent="0" />
        <mxCell id="Z9uIIL2k0UZiQugntRWc-1" value="Usuario" style="swimlane;fontStyle=1;align=center;verticalAlign=top;childLayout=stackLayout;horizontal=1;startSize=26;horizontalStack=0;resizeParent=1;resizeParentMax=0;resizeLast=0;collapsible=1;marginBottom=0;whiteSpace=wrap;html=1;labelBackgroundColor=none;rounded=1;" vertex="1" parent="1">
          <mxGeometry x="40" y="40" width="230" height="170" as="geometry" />
        </mxCell>
        <mxCell id="Z9uIIL2k0UZiQugntRWc-2" value="&lt;div&gt;&lt;span style=&quot;background-color: transparent; color: light-dark(rgb(0, 0, 0), rgb(255, 255, 255));&quot;&gt;&lt;font face=&quot;Helvetica&quot;&gt;id:int&lt;/font&gt;&lt;/span&gt;&lt;/div&gt;&lt;code style=&quot;&quot; data-end=&quot;913&quot; data-start=&quot;900&quot;&gt;&lt;font face=&quot;Helvetica&quot;&gt;nome:String&lt;/font&gt;&lt;/code&gt;&lt;br&gt;&lt;code style=&quot;&quot; data-end=&quot;932&quot; data-start=&quot;918&quot;&gt;&lt;font face=&quot;Helvetica&quot;&gt;login:String&lt;/font&gt;&lt;/code&gt;&lt;br&gt;&lt;code style=&quot;&quot; data-end=&quot;951&quot; data-start=&quot;937&quot;&gt;&lt;font face=&quot;Helvetica&quot;&gt;senha:String&lt;/font&gt;&lt;/code&gt;&lt;br&gt;&lt;code style=&quot;&quot; data-end=&quot;971&quot; data-start=&quot;956&quot;&gt;&lt;font face=&quot;Helvetica&quot;&gt;perfil:Perfil (ADMIN/OPERADOR)&lt;/font&gt;&lt;/code&gt;" style="text;strokeColor=none;fillColor=none;align=left;verticalAlign=top;spacingLeft=4;spacingRight=4;overflow=hidden;rotatable=0;points=[[0,0.5],[1,0.5]];portConstraint=eastwest;whiteSpace=wrap;html=1;labelBackgroundColor=none;rounded=1;" vertex="1" parent="Z9uIIL2k0UZiQugntRWc-1">
          <mxGeometry y="26" width="230" height="94" as="geometry" />
        </mxCell>
        <mxCell id="Z9uIIL2k0UZiQugntRWc-3" value="" style="line;strokeWidth=1;fillColor=none;align=left;verticalAlign=middle;spacingTop=-1;spacingLeft=3;spacingRight=3;rotatable=0;labelPosition=right;points=[];portConstraint=eastwest;labelBackgroundColor=none;rounded=1;" vertex="1" parent="Z9uIIL2k0UZiQugntRWc-1">
          <mxGeometry y="120" width="230" height="8" as="geometry" />
        </mxCell>
        <mxCell id="Z9uIIL2k0UZiQugntRWc-4" value="autenticar(login:String, senha:String):boolean" style="text;strokeColor=none;fillColor=none;align=left;verticalAlign=top;spacingLeft=4;spacingRight=4;overflow=hidden;rotatable=0;points=[[0,0.5],[1,0.5]];portConstraint=eastwest;whiteSpace=wrap;html=1;labelBackgroundColor=none;rounded=1;" vertex="1" parent="Z9uIIL2k0UZiQugntRWc-1">
          <mxGeometry y="128" width="230" height="42" as="geometry" />
        </mxCell>
        <mxCell id="Z9uIIL2k0UZiQugntRWc-5" value="AreaAgricola" style="swimlane;fontStyle=1;align=center;verticalAlign=top;childLayout=stackLayout;horizontal=1;startSize=26;horizontalStack=0;resizeParent=1;resizeParentMax=0;resizeLast=0;collapsible=1;marginBottom=0;whiteSpace=wrap;html=1;labelBackgroundColor=none;rounded=1;" vertex="1" parent="1">
          <mxGeometry x="440" y="40" width="160" height="170" as="geometry" />
        </mxCell>
        <mxCell id="Z9uIIL2k0UZiQugntRWc-6" value="id: int&lt;div&gt;tamanho: double&lt;/div&gt;&lt;div&gt;localizacao: String&lt;/div&gt;&lt;div&gt;tipoCultivo: String&lt;/div&gt;" style="text;strokeColor=none;fillColor=none;align=left;verticalAlign=top;spacingLeft=4;spacingRight=4;overflow=hidden;rotatable=0;points=[[0,0.5],[1,0.5]];portConstraint=eastwest;whiteSpace=wrap;html=1;labelBackgroundColor=none;rounded=1;" vertex="1" parent="Z9uIIL2k0UZiQugntRWc-5">
          <mxGeometry y="26" width="160" height="94" as="geometry" />
        </mxCell>
        <mxCell id="Z9uIIL2k0UZiQugntRWc-7" value="" style="line;strokeWidth=1;fillColor=none;align=left;verticalAlign=middle;spacingTop=-1;spacingLeft=3;spacingRight=3;rotatable=0;labelPosition=right;points=[];portConstraint=eastwest;labelBackgroundColor=none;rounded=1;" vertex="1" parent="Z9uIIL2k0UZiQugntRWc-5">
          <mxGeometry y="120" width="160" height="8" as="geometry" />
        </mxCell>
        <mxCell id="Z9uIIL2k0UZiQugntRWc-8" value="validar(): boolean" style="text;strokeColor=none;fillColor=none;align=left;verticalAlign=top;spacingLeft=4;spacingRight=4;overflow=hidden;rotatable=0;points=[[0,0.5],[1,0.5]];portConstraint=eastwest;whiteSpace=wrap;html=1;labelBackgroundColor=none;rounded=1;" vertex="1" parent="Z9uIIL2k0UZiQugntRWc-5">
          <mxGeometry y="128" width="160" height="42" as="geometry" />
        </mxCell>
        <mxCell id="Z9uIIL2k0UZiQugntRWc-9" value="Drone" style="swimlane;fontStyle=1;align=center;verticalAlign=top;childLayout=stackLayout;horizontal=1;startSize=26;horizontalStack=0;resizeParent=1;resizeParentMax=0;resizeLast=0;collapsible=1;marginBottom=0;whiteSpace=wrap;html=1;labelBackgroundColor=none;rounded=1;" vertex="1" parent="1">
          <mxGeometry x="40" y="280" width="210" height="250" as="geometry" />
        </mxCell>
        <mxCell id="Z9uIIL2k0UZiQugntRWc-10" value="id: String&lt;div&gt;&lt;br&gt;&lt;div&gt;status: StatusDrone (DISPONIVEL, EM_MISSAO, MANUTENCAO)&lt;/div&gt;&lt;div&gt;&lt;br&gt;&lt;/div&gt;&lt;div&gt;bateria: int (0-100)&lt;/div&gt;&lt;div&gt;&lt;br&gt;&lt;/div&gt;&lt;div&gt;sensores: Set&amp;lt;SensorTipo&amp;gt; (TEMP, UMID, PRAGAS, CAMERA)&lt;/div&gt;&lt;/div&gt;" style="text;strokeColor=none;fillColor=none;align=left;verticalAlign=top;spacingLeft=4;spacingRight=4;overflow=hidden;rotatable=0;points=[[0,0.5],[1,0.5]];portConstraint=eastwest;whiteSpace=wrap;html=1;labelBackgroundColor=none;rounded=1;" vertex="1" parent="Z9uIIL2k0UZiQugntRWc-9">
          <mxGeometry y="26" width="210" height="144" as="geometry" />
        </mxCell>
        <mxCell id="Z9uIIL2k0UZiQugntRWc-11" value="" style="line;strokeWidth=1;fillColor=none;align=left;verticalAlign=middle;spacingTop=-1;spacingLeft=3;spacingRight=3;rotatable=0;labelPosition=right;points=[];portConstraint=eastwest;labelBackgroundColor=none;rounded=1;" vertex="1" parent="Z9uIIL2k0UZiQugntRWc-9">
          <mxGeometry y="170" width="210" height="8" as="geometry" />
        </mxCell>
        <mxCell id="Z9uIIL2k0UZiQugntRWc-12" value="checarBateria: boolean&lt;div&gt;&lt;br&gt;&lt;div&gt;checarSensores(requeridos: Set&amp;lt;SensorTipo&amp;gt;): boolean&lt;/div&gt;&lt;/div&gt;" style="text;strokeColor=none;fillColor=none;align=left;verticalAlign=top;spacingLeft=4;spacingRight=4;overflow=hidden;rotatable=0;points=[[0,0.5],[1,0.5]];portConstraint=eastwest;whiteSpace=wrap;html=1;labelBackgroundColor=none;rounded=1;" vertex="1" parent="Z9uIIL2k0UZiQugntRWc-9">
          <mxGeometry y="178" width="210" height="72" as="geometry" />
        </mxCell>
        <mxCell id="Z9uIIL2k0UZiQugntRWc-13" value="Missao" style="swimlane;fontStyle=1;align=center;verticalAlign=top;childLayout=stackLayout;horizontal=1;startSize=26;horizontalStack=0;resizeParent=1;resizeParentMax=0;resizeLast=0;collapsible=1;marginBottom=0;whiteSpace=wrap;html=1;labelBackgroundColor=none;rounded=1;" vertex="1" parent="1">
          <mxGeometry x="520" y="280" width="270" height="200" as="geometry" />
        </mxCell>
        <mxCell id="Z9uIIL2k0UZiQugntRWc-14" value="&lt;div&gt;id:int&lt;/div&gt;&lt;div&gt;dataHora:Date&lt;/div&gt;&lt;div&gt;status:StatusMissao (AGENDADA, EM_EXECUCAO, CONCLUIDA, CANCELADA)&lt;/div&gt;&lt;div&gt;sensoresUsados:Set&amp;lt;SensorTipo&amp;gt;&lt;/div&gt;" style="text;strokeColor=none;fillColor=none;align=left;verticalAlign=top;spacingLeft=4;spacingRight=4;overflow=hidden;rotatable=0;points=[[0,0.5],[1,0.5]];portConstraint=eastwest;whiteSpace=wrap;html=1;labelBackgroundColor=none;rounded=1;" vertex="1" parent="Z9uIIL2k0UZiQugntRWc-13">
          <mxGeometry y="26" width="270" height="104" as="geometry" />
        </mxCell>
        <mxCell id="Z9uIIL2k0UZiQugntRWc-15" value="" style="line;strokeWidth=1;fillColor=none;align=left;verticalAlign=middle;spacingTop=-1;spacingLeft=3;spacingRight=3;rotatable=0;labelPosition=right;points=[];portConstraint=eastwest;labelBackgroundColor=none;rounded=1;" vertex="1" parent="Z9uIIL2k0UZiQugntRWc-13">
          <mxGeometry y="130" width="270" height="8" as="geometry" />
        </mxCell>
        <mxCell id="Z9uIIL2k0UZiQugntRWc-16" value="&lt;div&gt;validarDisponibilidade():boolean&lt;/div&gt;&lt;div&gt;agendar():void&lt;/div&gt;&lt;div&gt;executar():void&lt;/div&gt;" style="text;strokeColor=none;fillColor=none;align=left;verticalAlign=top;spacingLeft=4;spacingRight=4;overflow=hidden;rotatable=0;points=[[0,0.5],[1,0.5]];portConstraint=eastwest;whiteSpace=wrap;html=1;labelBackgroundColor=none;rounded=1;" vertex="1" parent="Z9uIIL2k0UZiQugntRWc-13">
          <mxGeometry y="138" width="270" height="62" as="geometry" />
        </mxCell>
        <mxCell id="Z9uIIL2k0UZiQugntRWc-17" value="DadosColetados" style="swimlane;fontStyle=1;align=center;verticalAlign=top;childLayout=stackLayout;horizontal=1;startSize=26;horizontalStack=0;resizeParent=1;resizeParentMax=0;resizeLast=0;collapsible=1;marginBottom=0;whiteSpace=wrap;html=1;labelBackgroundColor=none;rounded=1;" vertex="1" parent="1">
          <mxGeometry x="40" y="585" width="220" height="154" as="geometry" />
        </mxCell>
        <mxCell id="Z9uIIL2k0UZiQugntRWc-18" value="&lt;div&gt;id:int&lt;/div&gt;&lt;div&gt;imagens:List&amp;lt;String&amp;gt; (paths ou URLs)&lt;/div&gt;&lt;div&gt;temperatura:Double&lt;/div&gt;&lt;div&gt;umidade:Double&lt;/div&gt;&lt;div&gt;pragas:Boolean&lt;/div&gt;" style="text;strokeColor=none;fillColor=none;align=left;verticalAlign=top;spacingLeft=4;spacingRight=4;overflow=hidden;rotatable=0;points=[[0,0.5],[1,0.5]];portConstraint=eastwest;whiteSpace=wrap;html=1;labelBackgroundColor=none;rounded=1;" vertex="1" parent="Z9uIIL2k0UZiQugntRWc-17">
          <mxGeometry y="26" width="220" height="94" as="geometry" />
        </mxCell>
        <mxCell id="Z9uIIL2k0UZiQugntRWc-19" value="" style="line;strokeWidth=1;fillColor=none;align=left;verticalAlign=middle;spacingTop=-1;spacingLeft=3;spacingRight=3;rotatable=0;labelPosition=right;points=[];portConstraint=eastwest;labelBackgroundColor=none;rounded=1;" vertex="1" parent="Z9uIIL2k0UZiQugntRWc-17">
          <mxGeometry y="120" width="220" height="8" as="geometry" />
        </mxCell>
        <mxCell id="Z9uIIL2k0UZiQugntRWc-20" value="registrar():void" style="text;strokeColor=none;fillColor=none;align=left;verticalAlign=top;spacingLeft=4;spacingRight=4;overflow=hidden;rotatable=0;points=[[0,0.5],[1,0.5]];portConstraint=eastwest;whiteSpace=wrap;html=1;labelBackgroundColor=none;rounded=1;" vertex="1" parent="Z9uIIL2k0UZiQugntRWc-17">
          <mxGeometry y="128" width="220" height="26" as="geometry" />
        </mxCell>
        <mxCell id="Z9uIIL2k0UZiQugntRWc-38" value="0..n&lt;div&gt;&lt;br&gt;&lt;/div&gt;" style="endArrow=none;html=1;endSize=12;startArrow=diamondThin;startSize=14;startFill=1;edgeStyle=orthogonalEdgeStyle;align=left;verticalAlign=bottom;rounded=1;endFill=0;entryX=0.122;entryY=1.046;entryDx=0;entryDy=0;entryPerimeter=0;labelBackgroundColor=none;fontColor=default;" edge="1" parent="Z9uIIL2k0UZiQugntRWc-17">
          <mxGeometry x="-1" y="-10" relative="1" as="geometry">
            <mxPoint x="108" as="sourcePoint" />
            <mxPoint x="520.94" y="-97.14799999999991" as="targetPoint" />
            <Array as="points">
              <mxPoint x="108" y="-30" />
              <mxPoint x="528" y="-30" />
              <mxPoint x="528" y="-100" />
              <mxPoint x="521" y="-100" />
            </Array>
            <mxPoint as="offset" />
          </mxGeometry>
        </mxCell>
        <mxCell id="Z9uIIL2k0UZiQugntRWc-21" value="Relatorio&lt;div&gt;&lt;br&gt;&lt;/div&gt;" style="swimlane;fontStyle=1;align=center;verticalAlign=top;childLayout=stackLayout;horizontal=1;startSize=26;horizontalStack=0;resizeParent=1;resizeParentMax=0;resizeLast=0;collapsible=1;marginBottom=0;whiteSpace=wrap;html=1;labelBackgroundColor=none;rounded=1;" vertex="1" parent="1">
          <mxGeometry x="520" y="585" width="190" height="124" as="geometry" />
        </mxCell>
        <mxCell id="Z9uIIL2k0UZiQugntRWc-22" value="&lt;div&gt;id:int&lt;/div&gt;&lt;div&gt;dataGeracao:Date&lt;/div&gt;" style="text;strokeColor=none;fillColor=none;align=left;verticalAlign=top;spacingLeft=4;spacingRight=4;overflow=hidden;rotatable=0;points=[[0,0.5],[1,0.5]];portConstraint=eastwest;whiteSpace=wrap;html=1;labelBackgroundColor=none;rounded=1;" vertex="1" parent="Z9uIIL2k0UZiQugntRWc-21">
          <mxGeometry y="26" width="190" height="64" as="geometry" />
        </mxCell>
        <mxCell id="Z9uIIL2k0UZiQugntRWc-23" value="" style="line;strokeWidth=1;fillColor=none;align=left;verticalAlign=middle;spacingTop=-1;spacingLeft=3;spacingRight=3;rotatable=0;labelPosition=right;points=[];portConstraint=eastwest;labelBackgroundColor=none;rounded=1;" vertex="1" parent="Z9uIIL2k0UZiQugntRWc-21">
          <mxGeometry y="90" width="190" height="8" as="geometry" />
        </mxCell>
        <mxCell id="Z9uIIL2k0UZiQugntRWc-24" value="gerar(area:AreaAgricola):String" style="text;strokeColor=none;fillColor=none;align=left;verticalAlign=top;spacingLeft=4;spacingRight=4;overflow=hidden;rotatable=0;points=[[0,0.5],[1,0.5]];portConstraint=eastwest;whiteSpace=wrap;html=1;labelBackgroundColor=none;rounded=1;" vertex="1" parent="Z9uIIL2k0UZiQugntRWc-21">
          <mxGeometry y="98" width="190" height="26" as="geometry" />
        </mxCell>
        <mxCell id="Z9uIIL2k0UZiQugntRWc-25" value="&lt;div&gt;&lt;br&gt;&lt;/div&gt;&lt;div&gt;&lt;br&gt;&lt;/div&gt;" style="endArrow=none;endFill=0;html=1;edgeStyle=orthogonalEdgeStyle;align=left;verticalAlign=top;rounded=1;exitX=1.01;exitY=0.044;exitDx=0;exitDy=0;exitPerimeter=0;labelBackgroundColor=none;fontColor=default;" edge="1" parent="1" source="Z9uIIL2k0UZiQugntRWc-9">
          <mxGeometry x="-1" relative="1" as="geometry">
            <mxPoint x="250" y="390" as="sourcePoint" />
            <mxPoint x="520" y="291" as="targetPoint" />
          </mxGeometry>
        </mxCell>
        <mxCell id="Z9uIIL2k0UZiQugntRWc-26" value="1" style="edgeLabel;resizable=0;html=1;align=left;verticalAlign=bottom;labelBackgroundColor=none;rounded=1;" connectable="0" vertex="1" parent="Z9uIIL2k0UZiQugntRWc-25">
          <mxGeometry x="-1" relative="1" as="geometry">
            <mxPoint x="254" as="offset" />
          </mxGeometry>
        </mxCell>
        <mxCell id="Z9uIIL2k0UZiQugntRWc-31" value="0..n" style="edgeLabel;resizable=0;html=1;align=left;verticalAlign=bottom;labelBackgroundColor=none;rounded=1;" connectable="0" vertex="1" parent="1">
          <mxGeometry x="254" y="290" as="geometry" />
        </mxCell>
        <mxCell id="Z9uIIL2k0UZiQugntRWc-34" value="&lt;div&gt;&lt;br&gt;&lt;/div&gt;&lt;div&gt;&lt;br&gt;&lt;/div&gt;" style="endArrow=none;endFill=0;html=1;edgeStyle=orthogonalEdgeStyle;align=left;verticalAlign=top;rounded=1;exitX=1;exitY=0.118;exitDx=0;exitDy=0;exitPerimeter=0;entryX=0.5;entryY=0;entryDx=0;entryDy=0;labelBackgroundColor=none;fontColor=default;" edge="1" parent="1" source="Z9uIIL2k0UZiQugntRWc-5" target="Z9uIIL2k0UZiQugntRWc-13">
          <mxGeometry x="-1" relative="1" as="geometry">
            <mxPoint x="550" y="230" as="sourcePoint" />
            <mxPoint x="818" y="230" as="targetPoint" />
            <Array as="points">
              <mxPoint x="720" y="60" />
              <mxPoint x="720" y="280" />
            </Array>
          </mxGeometry>
        </mxCell>
        <mxCell id="Z9uIIL2k0UZiQugntRWc-35" value="1" style="edgeLabel;resizable=0;html=1;align=left;verticalAlign=bottom;labelBackgroundColor=none;rounded=1;" connectable="0" vertex="1" parent="Z9uIIL2k0UZiQugntRWc-34">
          <mxGeometry x="-1" relative="1" as="geometry">
            <mxPoint x="5" y="117" as="offset" />
          </mxGeometry>
        </mxCell>
        <mxCell id="Z9uIIL2k0UZiQugntRWc-36" value="1" style="edgeLabel;resizable=0;html=1;align=left;verticalAlign=bottom;labelBackgroundColor=none;rounded=1;" connectable="0" vertex="1" parent="1">
          <mxGeometry x="703" y="280" as="geometry" />
        </mxCell>
        <mxCell id="Z9uIIL2k0UZiQugntRWc-37" value="0..n" style="edgeLabel;resizable=0;html=1;align=left;verticalAlign=bottom;labelBackgroundColor=none;rounded=1;" connectable="0" vertex="1" parent="1">
          <mxGeometry x="610" y="60" as="geometry" />
        </mxCell>
        <mxCell id="Z9uIIL2k0UZiQugntRWc-39" value="1" style="edgeLabel;resizable=0;html=1;align=left;verticalAlign=bottom;labelBackgroundColor=none;rounded=1;" connectable="0" vertex="1" parent="1">
          <mxGeometry x="563" y="499" as="geometry" />
        </mxCell>
        <mxCell id="Z9uIIL2k0UZiQugntRWc-40" value="&lt;div&gt;&lt;br&gt;&lt;/div&gt;&lt;div&gt;&lt;br&gt;&lt;/div&gt;" style="endArrow=none;endFill=0;html=1;edgeStyle=orthogonalEdgeStyle;align=left;verticalAlign=top;rounded=1;exitX=0.625;exitY=0.003;exitDx=0;exitDy=0;exitPerimeter=0;entryX=0.44;entryY=0.992;entryDx=0;entryDy=0;entryPerimeter=0;labelBackgroundColor=none;fontColor=default;" edge="1" parent="1" source="Z9uIIL2k0UZiQugntRWc-21" target="Z9uIIL2k0UZiQugntRWc-16">
          <mxGeometry x="-1" relative="1" as="geometry">
            <mxPoint x="570" y="540" as="sourcePoint" />
            <mxPoint x="838" y="540" as="targetPoint" />
          </mxGeometry>
        </mxCell>
        <mxCell id="Z9uIIL2k0UZiQugntRWc-42" value="1" style="edgeLabel;resizable=0;html=1;align=left;verticalAlign=bottom;labelBackgroundColor=none;rounded=1;" connectable="0" vertex="1" parent="1">
          <mxGeometry x="640" y="585" as="geometry" />
        </mxCell>
        <mxCell id="Z9uIIL2k0UZiQugntRWc-44" value="1..n" style="edgeLabel;resizable=0;html=1;align=left;verticalAlign=bottom;labelBackgroundColor=none;rounded=1;" connectable="0" vertex="1" parent="1">
          <mxGeometry x="640" y="500" as="geometry" />
        </mxCell>
        <mxCell id="Z9uIIL2k0UZiQugntRWc-45" value="&lt;div&gt;&lt;br&gt;&lt;/div&gt;&lt;div&gt;&lt;br&gt;&lt;/div&gt;" style="endArrow=none;endFill=0;html=1;edgeStyle=orthogonalEdgeStyle;align=left;verticalAlign=top;rounded=1;exitX=1.005;exitY=0.751;exitDx=0;exitDy=0;exitPerimeter=0;entryX=1.047;entryY=0.262;entryDx=0;entryDy=0;entryPerimeter=0;labelBackgroundColor=none;fontColor=default;" edge="1" parent="1" source="Z9uIIL2k0UZiQugntRWc-22" target="Z9uIIL2k0UZiQugntRWc-8">
          <mxGeometry x="-0.9519" y="4" relative="1" as="geometry">
            <mxPoint x="740" y="620" as="sourcePoint" />
            <mxPoint x="918" y="560" as="targetPoint" />
            <Array as="points">
              <mxPoint x="711" y="657" />
              <mxPoint x="900" y="657" />
              <mxPoint x="900" y="180" />
              <mxPoint x="750" y="180" />
            </Array>
            <mxPoint as="offset" />
          </mxGeometry>
        </mxCell>
        <mxCell id="Z9uIIL2k0UZiQugntRWc-47" value="1" style="edgeLabel;resizable=0;html=1;align=left;verticalAlign=bottom;labelBackgroundColor=none;rounded=1;" connectable="0" vertex="1" parent="1">
          <mxGeometry x="714" y="654" as="geometry" />
        </mxCell>
        <mxCell id="Z9uIIL2k0UZiQugntRWc-48" value="&lt;div&gt;&lt;br&gt;&lt;/div&gt;&lt;div&gt;&lt;br&gt;&lt;/div&gt;" style="endArrow=none;endFill=0;html=1;edgeStyle=orthogonalEdgeStyle;align=left;verticalAlign=top;rounded=1;exitX=1.043;exitY=0.551;exitDx=0;exitDy=0;exitPerimeter=0;labelBackgroundColor=none;fontColor=default;" edge="1" parent="1" source="Z9uIIL2k0UZiQugntRWc-2">
          <mxGeometry x="-1" relative="1" as="geometry">
            <mxPoint x="252" y="379.38" as="sourcePoint" />
            <mxPoint x="520" y="379.38" as="targetPoint" />
            <Array as="points">
              <mxPoint x="360" y="118" />
              <mxPoint x="360" y="379" />
            </Array>
          </mxGeometry>
        </mxCell>
        <mxCell id="Z9uIIL2k0UZiQugntRWc-50" value="0..n" style="edgeLabel;resizable=0;html=1;align=left;verticalAlign=bottom;labelBackgroundColor=none;rounded=1;" connectable="0" vertex="1" parent="1">
          <mxGeometry x="277" y="117" as="geometry" />
        </mxCell>
        <mxCell id="Z9uIIL2k0UZiQugntRWc-51" value="1" style="edgeLabel;resizable=0;html=1;align=left;verticalAlign=bottom;labelBackgroundColor=none;rounded=1;" connectable="0" vertex="1" parent="1">
          <mxGeometry x="507" y="376" as="geometry" />
        </mxCell>
      </root>
    </mxGraphModel>
  </diagram>
  <diagram id="8oZnYL7nXSCqe3jZvd_b" name="Diagrama de Sequência">
    <mxGraphModel dx="983" dy="592" grid="1" gridSize="10" guides="1" tooltips="1" connect="1" arrows="1" fold="1" page="1" pageScale="1" pageWidth="827" pageHeight="1169" math="0" shadow="0">
      <root>
        <mxCell id="0" />
        <mxCell id="1" parent="0" />
        <mxCell id="echvLaX9unn0uVW_Tsh4-1" value="Administrador" style="shape=umlLifeline;perimeter=lifelinePerimeter;whiteSpace=wrap;html=1;container=1;dropTarget=0;collapsible=0;recursiveResize=0;outlineConnect=0;portConstraint=eastwest;newEdgeStyle={&quot;curved&quot;:0,&quot;rounded&quot;:0};rounded=1;" parent="1" vertex="1">
          <mxGeometry x="81" y="120" width="120" height="260" as="geometry" />
        </mxCell>
        <mxCell id="echvLaX9unn0uVW_Tsh4-2" value="Sistema&lt;span style=&quot;color: rgba(0, 0, 0, 0); font-family: monospace; font-size: 0px; text-align: start; text-wrap-mode: nowrap;&quot;&gt;%3CmxGraphModel%3E%3Croot%3E%3CmxCell%20id%3D%220%22%2F%3E%3CmxCell%20id%3D%221%22%20parent%3D%220%22%2F%3E%3CmxCell%20id%3D%222%22%20value%3D%22Administrador%22%20style%3D%22shape%3DumlLifeline%3Bperimeter%3DlifelinePerimeter%3BwhiteSpace%3Dwrap%3Bhtml%3D1%3Bcontainer%3D1%3BdropTarget%3D0%3Bcollapsible%3D0%3BrecursiveResize%3D0%3BoutlineConnect%3D0%3BportConstraint%3Deastwest%3BnewEdgeStyle%3D%7B%26quot%3Bcurved%26quot%3B%3A0%2C%26quot%3Brounded%26quot%3B%3A0%7D%3B%22%20vertex%3D%221%22%20parent%3D%221%22%3E%3CmxGeometry%20x%3D%22200%22%20y%3D%22120%22%20width%3D%22110%22%20height%3D%22260%22%20as%3D%22geometry%22%2F%3E%3C%2FmxCell%3E%3C%2Froot%3E%3C%2FmxGraphModel%3E&lt;/span&gt;" style="shape=umlLifeline;perimeter=lifelinePerimeter;whiteSpace=wrap;html=1;container=1;dropTarget=0;collapsible=0;recursiveResize=0;outlineConnect=0;portConstraint=eastwest;newEdgeStyle={&quot;curved&quot;:0,&quot;rounded&quot;:0};rounded=1;" parent="1" vertex="1">
          <mxGeometry x="281" y="120" width="120" height="260" as="geometry" />
        </mxCell>
        <mxCell id="echvLaX9unn0uVW_Tsh4-3" value="Drone" style="shape=umlLifeline;perimeter=lifelinePerimeter;whiteSpace=wrap;html=1;container=1;dropTarget=0;collapsible=0;recursiveResize=0;outlineConnect=0;portConstraint=eastwest;newEdgeStyle={&quot;curved&quot;:0,&quot;rounded&quot;:0};rounded=1;" parent="1" vertex="1">
          <mxGeometry x="441" y="120" width="120" height="260" as="geometry" />
        </mxCell>
        <mxCell id="echvLaX9unn0uVW_Tsh4-4" value="Banco de Dados" style="shape=umlLifeline;perimeter=lifelinePerimeter;whiteSpace=wrap;html=1;container=1;dropTarget=0;collapsible=0;recursiveResize=0;outlineConnect=0;portConstraint=eastwest;newEdgeStyle={&quot;curved&quot;:0,&quot;rounded&quot;:0};rounded=1;" parent="1" vertex="1">
          <mxGeometry x="601" y="120" width="120" height="260" as="geometry" />
        </mxCell>
        <mxCell id="echvLaX9unn0uVW_Tsh4-5" value="solicitarAgendamento" style="html=1;verticalAlign=bottom;endArrow=block;curved=0;rounded=1;" parent="1" source="echvLaX9unn0uVW_Tsh4-1" edge="1">
          <mxGeometry width="80" relative="1" as="geometry">
            <mxPoint x="181" y="190" as="sourcePoint" />
            <mxPoint x="340" y="190" as="targetPoint" />
            <Array as="points">
              <mxPoint x="321" y="190" />
            </Array>
          </mxGeometry>
        </mxCell>
        <mxCell id="echvLaX9unn0uVW_Tsh4-7" value="checarBateria" style="html=1;verticalAlign=bottom;endArrow=block;curved=0;rounded=1;" parent="1" source="echvLaX9unn0uVW_Tsh4-2" edge="1" target="echvLaX9unn0uVW_Tsh4-3">
          <mxGeometry width="80" relative="1" as="geometry">
            <mxPoint x="500.5" y="215" as="sourcePoint" />
            <mxPoint x="660.5" y="215" as="targetPoint" />
            <Array as="points">
              <mxPoint x="450" y="215" />
            </Array>
          </mxGeometry>
        </mxCell>
        <mxCell id="echvLaX9unn0uVW_Tsh4-8" value="ok/erro" style="html=1;verticalAlign=bottom;endArrow=open;dashed=1;endSize=8;curved=0;rounded=1;" parent="1" source="echvLaX9unn0uVW_Tsh4-3" edge="1">
          <mxGeometry relative="1" as="geometry">
            <mxPoint x="501" y="239" as="sourcePoint" />
            <mxPoint x="340.5" y="239" as="targetPoint" />
            <mxPoint as="offset" />
          </mxGeometry>
        </mxCell>
        <mxCell id="echvLaX9unn0uVW_Tsh4-9" value="checarSensores" style="html=1;verticalAlign=bottom;endArrow=block;curved=0;rounded=1;" parent="1" target="echvLaX9unn0uVW_Tsh4-3" edge="1">
          <mxGeometry width="80" relative="1" as="geometry">
            <mxPoint x="340.5" y="267" as="sourcePoint" />
            <mxPoint x="660.5" y="267" as="targetPoint" />
            <Array as="points" />
          </mxGeometry>
        </mxCell>
        <mxCell id="echvLaX9unn0uVW_Tsh4-10" value="ok/erro" style="html=1;verticalAlign=bottom;endArrow=open;dashed=1;endSize=8;curved=0;rounded=1;" parent="1" source="echvLaX9unn0uVW_Tsh4-3" edge="1">
          <mxGeometry relative="1" as="geometry">
            <mxPoint x="660.5" y="292" as="sourcePoint" />
            <mxPoint x="340.5" y="292" as="targetPoint" />
            <mxPoint as="offset" />
          </mxGeometry>
        </mxCell>
        <mxCell id="echvLaX9unn0uVW_Tsh4-11" value="salvar(Missao)" style="html=1;verticalAlign=bottom;endArrow=block;curved=0;rounded=1;" parent="1" source="echvLaX9unn0uVW_Tsh4-2" target="echvLaX9unn0uVW_Tsh4-4" edge="1">
          <mxGeometry width="80" relative="1" as="geometry">
            <mxPoint x="341.25" y="320" as="sourcePoint" />
            <mxPoint x="660.75" y="320" as="targetPoint" />
            <Array as="points">
              <mxPoint x="541.25" y="320" />
            </Array>
          </mxGeometry>
        </mxCell>
        <mxCell id="echvLaX9unn0uVW_Tsh4-15" value="confirmacao" style="html=1;verticalAlign=bottom;endArrow=open;dashed=1;endSize=8;curved=0;rounded=1;" parent="1" edge="1">
          <mxGeometry relative="1" as="geometry">
            <mxPoint x="660.5" y="342" as="sourcePoint" />
            <mxPoint x="340.5" y="342" as="targetPoint" />
          </mxGeometry>
        </mxCell>
        <mxCell id="echvLaX9unn0uVW_Tsh4-17" value="confirmarAgendamento" style="html=1;verticalAlign=bottom;endArrow=open;dashed=1;endSize=8;curved=0;rounded=1;" parent="1" edge="1">
          <mxGeometry relative="1" as="geometry">
            <mxPoint x="340.5" y="365" as="sourcePoint" />
            <mxPoint x="140.5" y="365" as="targetPoint" />
          </mxGeometry>
        </mxCell>
      </root>
    </mxGraphModel>
  </diagram>
</mxfile>
